<?xml version="1.0" encoding="UTF-8"?>
<svg id="_レイヤー_1" data-name="レイヤー_1" xmlns="http://www.w3.org/2000/svg" version="1.1" viewBox="0 0 24 24">
  <!-- Generator: Adobe Illustrator 29.8.1, SVG Export Plug-In . SVG Version: 2.1.1 Build 2)  -->
  <defs>
    <style>
      .st0 {
        fill: #436cb0;
      }
    </style>
  </defs>
  <path class="st0" d="M6,22c-.6,0-1-.2-1.4-.6s-.6-.9-.6-1.4v-10c0-.6.2-1,.6-1.4s.9-.6,1.4-.6h1v-2c0-1.4.5-2.6,1.5-3.5s2.2-1.5,3.5-1.5,2.6.5,3.5,1.5,1.5,2.2,1.5,3.5v2h1c.6,0,1,.2,1.4.6s.6.9.6,1.4v10c0,.6-.2,1-.6,1.4s-.9.6-1.4.6H6ZM6,20h12v-10H6v10ZM13.4,16.4c.4-.4.6-.9.6-1.4s-.2-1-.6-1.4-.9-.6-1.4-.6-1,.2-1.4.6-.6.9-.6,1.4.2,1,.6,1.4.9.6,1.4.6,1-.2,1.4-.6ZM9,8h6v-2c0-.8-.3-1.5-.9-2.1s-1.3-.9-2.1-.9-1.5.3-2.1.9-.9,1.3-.9,2.1v2ZM6,20v-10,10Z"/>
</svg>