<?xml version="1.0" encoding="UTF-8"?>
<svg id="_レイヤー_1" xmlns="http://www.w3.org/2000/svg" version="1.1" viewBox="0 0 100.4 89.8">
  <!-- Generator: Adobe Illustrator 30.5.1, SVG Export Plug-In . SVG Version: 2.1.4 Build 3)  -->
  <defs>
    <style>
      .st0 {
        fill: #fff;
      }
    </style>
  </defs>
  <path class="st0" d="M81.3,3.1C65.3,8.3,20,22.7,8.1,27S0,36,3,38.5c3,2.6,15.3,10.7,19.2,12.8s6,1.7,11.1-3,29.6-22.8,31.9-24.7c4.4-3.5,10.2,1.1,5.1,5.5-5.1,4.4-36.6,29-37.5,30.3s-1.3,4.3-.9,6.8,0,16.6,0,20,4.7,3.4,7.2,0,7.7-10.7,7.7-10.7c0,0,1.7-3.8,6,.4,4.3,4.3,10.2,8.1,14.1,11.5,3.8,3.4,7.7,4.1,10.6-3.8,3.1-8.1,19.8-62.7,21.7-70.8,3.2-13,.2-15.7-17.9-9.8h0Z"/>
</svg>