<?xml version="1.0" encoding="UTF-8"?>
<svg id="_レイヤー_1" data-name="レイヤー_1" xmlns="http://www.w3.org/2000/svg" version="1.1" viewBox="0 0 388.2 126.6">
  <!-- Generator: Adobe Illustrator 29.8.1, SVG Export Plug-In . SVG Version: 2.1.1 Build 2)  -->
  <defs>
    <style>
      .st0 {
        fill: #221815;
      }
    </style>
  </defs>
  <polygon class="st0" points="83.7 31.3 47.7 106.4 16.6 106.4 12.4 115.4 52.7 115.4 92.9 31.3 83.7 31.3"/>
  <path class="st0" d="M122,21.3l-49.8,104.1h263.4l49.8-104.1H122ZM164.6,77.5h-48.9l3.7-7.8h48.9l-3.8,7.8ZM196.8,113.3h-8.3l8.7-40.1h8l-8.3,40.1ZM250.9,113.3l-8.3-40.1h8l8.7,40.1h-8.3ZM255.8,60.8h-27.3v54.5h-8.3v-54.5h-31.7l3.6-7.4h28.1v-22.1h8.3v22.1h30.9l-3.6,7.4ZM328.1,58.2l-27.4,57.2h-7.8l27.3-57.2h-25.9l-7.1,14.8h-8.3l19.9-41.7h8.3l-9.1,19h52.2l-3.8,7.8h-18.5Z"/>
  <polygon class="st0" points=".9 1.2 .9 84.4 33.9 84.4 73.7 1.2 .9 1.2"/>
</svg>